# xmcd
#
# Track frame offsets: 
#        150
#        18557
#        38335
#        59202
#        77580
#        95330
#        113607
#        130572
#        146915
#        164612
#        181412
#        198700
#        220045
#
# Disc length: 3176 seconds
#
# Revision: 5
# Processed by: cddbd v1.5.2PL0 Copyright (c) Steve Scherf et al.
# Submitted via: ExactAudioCopy v0.95a5
#
DISCID=b40c660d
DTITLE=Boyz II Men - The Remedy
DYEAR=2006
DGENRE=R&B
TTITLE0=Muzak
TTITLE1=Gonna Have
TTITLE2=Here I Come
TTITLE3=Perfect Love Song
TTITLE4=Misunderslanding
TTITLE5=Booed Up
TTITLE6=You Don't Love Me
TTITLE7=The Last Time
TTITLE8=Just Like Me
TTITLE9=Crush
TTITLE10=Ego
TTITLE11=Morning Love
TTITLE12=Muzak (feat. ATSUSHI(EXILE))
EXTD=YEAR: 2006
EXTT0=
EXTT1=
EXTT2=
EXTT3=
EXTT4=
EXTT5=
EXTT6=
EXTT7=
EXTT8=
EXTT9=
EXTT10=
EXTT11=
EXTT12=
PLAYORDER=
